<svg version="1.1" id="Layer_1" xmlns="http://www.w3.org/2000/svg" xmlns:xlink="http://www.w3.org/1999/xlink" x="0px" y="0px"
	 width="100%" viewBox="0 0 326 326" enable-background="new 0 0 326 326" xml:space="preserve">
<path fill="#FDFFFE" opacity="1.000000" stroke="none" 
	d="
M193.000000,327.000000 
	C130.000015,327.000000 67.499969,326.964264 5.000272,327.096802 
	C1.575614,327.104034 0.900798,326.424133 0.904567,322.999969 
	C1.021232,217.000137 1.021228,111.000122 0.904601,5.000288 
	C0.900834,1.576659 1.575507,0.900781 4.999918,0.904551 
	C110.999748,1.021241 216.999771,1.021220 322.999603,0.904619 
	C326.422974,0.900853 327.099243,1.575146 327.095490,4.999802 
	C326.978790,110.999634 326.978790,216.999649 327.095367,322.999481 
	C327.099121,326.422577 326.426727,327.110016 323.000092,327.098175 
	C279.833801,326.948639 236.666809,327.000000 193.000000,327.000000 
z"/>
<path fill="#04BBB1" opacity="1.000000" stroke="none" 
	d="
M126.645523,230.749207 
	C127.193405,231.491241 127.555840,231.942932 127.963921,232.688354 
	C128.013794,233.585663 128.191162,234.126297 128.802795,234.788742 
	C129.321716,235.471725 129.630310,235.951477 129.938797,236.727509 
	C130.007416,238.279968 130.363037,239.472916 131.010803,240.815796 
	C131.281403,240.970490 131.404846,241.192337 131.335663,241.298767 
	C132.236847,247.649551 132.464890,253.921402 131.981293,260.221741 
	C131.648193,264.561310 129.578354,266.278046 124.607666,266.309204 
	C119.502296,266.341217 116.842094,264.401062 116.563530,260.151672 
	C116.357071,257.002228 116.545723,253.831635 116.510490,250.670914 
	C116.407242,241.408386 111.302376,235.192154 103.974480,230.438568 
	C100.147835,227.956238 96.671890,228.642593 92.999588,231.427368 
	C85.997604,236.737167 78.211227,240.104050 69.143814,240.426315 
	C56.076851,240.890717 47.115559,233.918579 39.608730,224.540680 
	C34.841145,218.584763 31.027540,211.941193 31.118256,203.631226 
	C33.637527,202.271988 35.999584,202.519684 38.312508,202.512299 
	C48.126644,202.480957 57.957493,202.853012 67.750175,202.393234 
	C76.424370,201.985962 84.230919,203.685486 91.603996,209.111069 
	C92.298584,209.387863 92.583694,209.479645 93.203636,209.871002 
	C94.521980,211.377121 95.505501,212.583649 96.763069,213.980774 
	C102.173363,215.756149 107.790535,215.555389 112.957123,218.507614 
	C113.316704,218.652710 113.150658,218.589508 113.238907,218.599747 
	C113.182533,218.980804 113.286156,219.234695 113.837639,219.147278 
	C114.546692,219.161407 115.095306,219.381470 115.810120,219.853363 
	C116.246696,220.276321 116.498711,220.471222 116.935364,220.816238 
	C117.454483,220.928879 117.721184,221.037033 118.039360,221.464157 
	C118.225220,222.062592 118.408005,222.410522 119.005234,222.729202 
	C119.305244,222.762451 119.187057,222.793900 119.213860,222.738937 
	C119.238815,223.107178 119.394547,223.455261 120.036285,223.705139 
	C120.339806,223.693939 120.134048,223.860275 120.214813,223.755493 
	C120.241203,224.087555 120.376907,224.446335 121.043839,224.695953 
	C121.355133,224.677094 121.138092,224.890427 121.225433,224.765823 
	C121.240417,225.080154 121.368744,225.441010 122.042511,225.695312 
	C122.355827,225.679092 122.147552,225.884613 122.229462,225.763397 
	C122.240227,226.080536 122.368858,226.440918 123.041580,226.696472 
	C123.354538,226.681839 123.158714,226.910583 123.234299,226.780365 
	C123.235275,227.078049 123.357445,227.430740 124.014458,227.721375 
	C124.319489,227.747147 124.214211,227.815964 124.226334,227.754257 
	C124.227379,228.111298 124.393570,228.440521 125.019073,228.774765 
	C125.619362,228.959244 125.839005,229.158142 125.996483,229.692093 
	C126.175392,230.098373 126.317726,230.278625 126.645523,230.749207 
z"/>
<path fill="#08BCB0" opacity="1.000000" stroke="none" 
	d="
M284.201294,232.204895 
	C283.454895,233.559021 282.742065,234.586304 281.759460,235.785156 
	C281.216217,236.296204 280.872162,236.533051 280.293091,236.941452 
	C280.129059,237.216232 280.098694,237.108841 280.153992,237.116241 
	C279.477722,237.483917 279.173035,238.327942 278.273041,238.934067 
	C278.106903,239.182510 278.079529,239.090973 278.127075,239.095718 
	C277.828857,239.221970 277.545013,239.428482 277.199982,239.959976 
	C270.281830,246.937851 261.390747,248.422043 252.532043,249.894699 
	C244.554031,251.220932 244.541107,251.143188 243.281189,258.941467 
	C240.624084,275.387573 228.150314,287.284790 211.886261,288.885315 
	C194.781067,290.568573 177.391464,280.660156 171.849670,265.714661 
	C171.499023,263.803192 171.084167,262.260620 170.865356,260.330322 
	C169.492676,250.787125 170.429520,241.527451 170.174667,232.295761 
	C170.024185,226.844009 170.214233,221.382874 170.362396,215.471573 
	C171.418198,212.492432 170.899033,209.863602 171.001129,207.282272 
	C171.232620,201.429321 173.052216,200.238022 179.065201,202.595734 
	C180.896973,205.596359 180.385590,208.504562 180.169678,211.794479 
	C179.717834,213.796204 179.243790,215.377960 180.020996,217.410828 
	C180.662018,223.195770 180.606308,228.577026 180.089172,234.356476 
	C179.867523,235.418411 178.796249,235.849762 179.660645,237.078217 
	C180.322647,239.007812 180.279358,240.604202 180.016083,242.600189 
	C179.049377,246.275330 179.184021,249.590790 179.753204,253.281815 
	C180.812302,268.830872 187.082809,274.614105 200.628494,278.535126 
	C211.045975,281.550690 222.771500,276.960419 229.090729,267.443359 
	C229.838379,266.308929 230.533600,265.595428 231.220886,264.411896 
	C238.308777,248.028473 227.466187,230.923798 210.009338,230.341248 
	C208.015579,230.274719 205.996033,230.486008 204.033890,230.087479 
	C200.825882,229.435913 198.263824,227.743408 198.303131,224.210892 
	C198.343948,220.542282 201.108139,218.981445 204.368530,218.856033 
	C218.783707,218.301559 231.043610,223.005234 239.160736,235.290909 
	C242.150986,239.816788 245.376404,241.178391 250.251877,240.638596 
	C261.183472,239.428284 270.325226,234.981613 277.368469,225.879837 
	C278.539886,225.015366 279.613953,224.555679 280.009460,223.015472 
	C280.214661,222.497711 280.307159,222.293182 280.579071,221.801010 
	C282.701080,219.444168 283.822418,217.029449 283.908447,213.788727 
	C284.083679,212.915665 284.275269,212.438156 284.796692,211.674515 
	C286.759155,210.097153 288.593506,209.634232 290.985291,210.661102 
	C292.702942,215.955643 290.345642,220.237381 288.332336,225.002991 
	C288.126373,225.374893 288.199310,225.701019 288.120178,225.848175 
	C287.224182,226.802261 287.504211,228.251511 286.258972,229.194473 
	C285.996216,229.966278 285.834167,230.410187 285.456360,230.966782 
	C284.825897,231.245636 284.490631,231.511795 284.201294,232.204895 
z"/>
<path fill="#04B9B1" opacity="1.000000" stroke="none" 
	d="
M144.671341,285.201691 
	C144.440033,282.918213 144.387634,280.888672 144.448868,278.437683 
	C145.564407,267.465240 144.958145,256.888123 144.932602,246.327606 
	C144.911880,237.760040 145.835342,229.146759 144.146744,220.170410 
	C144.124146,217.534256 145.195297,215.639114 145.862457,213.628922 
	C146.375916,212.081802 147.555725,210.785629 149.131744,211.312973 
	C152.759262,212.526749 156.632202,211.530212 160.447388,213.238464 
	C161.387070,232.443863 160.852341,251.263199 160.966019,270.079163 
	C160.998016,275.373627 161.625763,280.755341 159.284180,286.249695 
	C155.282806,286.674927 151.604736,286.739014 147.476318,286.711914 
	C146.351349,286.137787 145.495026,285.994232 144.671341,285.201691 
z"/>
<path fill="#03C5A9" opacity="1.000000" stroke="none" 
	d="
M133.019272,185.570496 
	C134.666138,187.362625 136.209885,188.861206 137.874176,190.686615 
	C139.179626,197.240829 136.611862,199.986420 130.730927,198.777252 
	C128.797043,198.379623 126.994133,197.481552 124.599884,197.189941 
	C117.939957,192.931335 110.409721,194.464615 103.612190,192.511490 
	C93.740265,189.674973 85.327972,185.022324 79.171745,176.677933 
	C77.899002,174.952820 76.466850,173.203690 78.136757,170.574585 
	C82.024948,168.944000 85.731194,169.579697 89.367340,169.539337 
	C97.366035,169.450546 105.374321,169.286880 113.363853,169.588943 
	C119.586021,169.824203 125.620377,171.076904 130.388275,176.360107 
	C130.824387,176.896835 130.994278,177.109024 131.330185,177.682404 
	C131.595184,179.769760 131.272171,181.510849 131.830917,183.547852 
	C132.102066,184.073349 132.221909,184.277054 132.539764,184.774811 
	C132.737778,185.068863 132.916138,185.276947 133.019272,185.570496 
z"/>
<path fill="#03C4AB" opacity="1.000000" stroke="none" 
	d="
M92.825417,209.925735 
	C90.164848,210.474670 88.481903,208.990723 86.700592,207.835068 
	C82.739540,205.265335 78.566895,203.857025 73.694527,203.928345 
	C59.780167,204.131973 45.860889,203.999634 31.475340,203.999115 
	C28.660088,201.766907 28.335928,198.657379 28.203241,195.826996 
	C27.889202,189.128174 27.595564,182.396393 28.457363,175.251343 
	C29.384251,172.581909 27.893084,167.784546 33.569229,170.731201 
	C33.879616,171.042099 34.095623,171.322342 34.130524,171.495789 
	C34.224606,172.045013 34.378944,172.374313 34.894188,172.775208 
	C35.144104,172.901001 34.998783,172.920242 35.070187,172.899811 
	C35.210419,173.047485 35.279251,173.215607 35.373482,173.653336 
	C35.397488,174.348648 34.752659,174.837173 35.718063,175.401718 
	C36.794685,177.012222 37.589500,178.465729 38.854294,180.010040 
	C45.976673,190.042908 56.307022,194.057495 67.325470,196.561096 
	C73.210205,197.898209 78.870895,199.624710 84.587341,202.424286 
	C85.105263,202.700531 85.308441,202.816406 85.811714,203.110703 
	C86.488976,203.553375 86.859566,203.826523 87.502731,204.302795 
	C88.718430,205.127762 89.699623,205.700089 90.688660,206.807144 
	C91.444168,207.651566 91.979843,208.238708 92.671402,209.085388 
	C92.915916,209.510010 93.004532,209.675110 92.825417,209.925735 
z"/>
<path fill="#01DE98" opacity="1.000000" stroke="none" 
	d="
M223.584290,56.721554 
	C223.858490,57.171490 223.932343,57.331013 224.001495,57.754181 
	C225.607376,59.412277 227.343002,58.889851 229.160416,58.494015 
	C235.862289,57.034328 242.553879,56.619358 249.520554,59.279030 
	C250.713120,59.537601 251.531540,59.505035 252.706177,59.761574 
	C253.069183,59.950436 252.999115,59.987663 253.021286,59.954765 
	C253.752182,60.896255 254.818497,61.315113 256.217316,61.784431 
	C256.557434,61.823059 256.848907,61.784374 256.921997,61.911922 
	C258.418793,63.334618 259.586304,64.953659 261.785797,65.786377 
	C262.058594,65.959892 262.000214,65.996300 262.018860,65.967392 
	C262.826050,66.879379 263.710663,67.726433 264.842285,68.757233 
	C265.080811,68.949303 265.010040,68.997330 265.031860,68.960556 
	C266.285645,71.284569 267.606689,73.585724 269.695496,75.768631 
	C269.920258,76.013763 270.178009,76.236946 270.161652,76.406639 
	C270.945740,78.456276 271.778229,80.328461 271.820068,82.741165 
	C272.203491,83.427147 272.332703,83.825188 272.393738,84.534424 
	C271.934235,85.945396 272.059265,87.125092 271.656128,88.558113 
	C270.440582,90.535225 266.369507,90.738449 269.093079,94.465576 
	C269.480133,95.875053 269.312042,96.980171 268.927917,98.350464 
	C266.860474,99.723328 265.431458,101.280510 263.931488,102.780708 
	C262.639801,104.072632 261.108856,105.040596 258.858887,104.014374 
	C258.114075,102.278198 258.893219,101.170898 259.600159,100.042999 
	C268.847504,85.289238 256.804749,68.019936 241.800552,66.428413 
	C233.849030,65.584984 226.639221,67.273819 220.504395,72.695595 
	C218.892441,74.120209 217.188187,75.488007 215.217545,76.397614 
	C213.170700,77.342377 210.928558,77.728302 209.109543,76.143501 
	C207.231766,74.507484 207.699295,72.224495 208.288376,70.102097 
	C208.647156,68.809448 209.299469,67.611664 210.215912,66.649193 
	C212.831665,63.902092 214.050766,60.491150 215.209229,56.607399 
	C216.548294,54.782429 218.410614,54.644070 220.306976,53.791061 
	C222.685562,53.488674 222.777420,55.215599 223.584290,56.721554 
z"/>
<path fill="#08BFAB" opacity="1.000000" stroke="none" 
	d="
M123.859627,196.366821 
	C125.420120,196.227814 126.929634,196.269562 128.336075,196.671753 
	C135.777878,198.799805 135.768890,198.831223 137.948364,191.396240 
	C139.255844,192.142181 140.516953,193.270950 141.890625,194.700562 
	C143.996933,197.305801 145.309982,197.200867 145.490326,193.915558 
	C145.616165,191.623154 145.489273,189.319016 145.528595,187.020599 
	C145.579559,184.042007 147.288605,182.418106 149.948914,183.574005 
	C153.293610,185.027267 157.005920,185.097168 160.453003,187.205505 
	C161.114548,195.820892 161.332748,204.051147 160.258148,212.638031 
	C156.572021,213.460968 153.242828,214.840836 149.881027,212.555923 
	C148.218811,211.426178 146.984604,212.375320 147.037354,214.401321 
	C147.080414,216.054901 146.250168,217.228073 145.130203,218.728302 
	C143.618698,219.542603 142.683990,218.752075 141.982574,217.866074 
	C136.780502,211.295181 130.631393,205.588181 125.133041,199.290268 
	C124.482361,198.544968 123.914131,197.734467 123.859627,196.366821 
z"/>
<path fill="#01D1A1" opacity="1.000000" stroke="none" 
	d="
M72.123177,140.511322 
	C72.210648,139.306686 72.241989,138.531921 72.423149,137.396408 
	C73.067879,135.561783 73.649757,134.148788 75.500908,133.220581 
	C86.492065,131.011322 95.625282,134.455383 104.351105,140.869812 
	C114.215302,145.486282 119.425613,154.425201 126.187447,161.735733 
	C127.253410,162.888199 128.167160,164.471939 126.637733,166.377136 
	C121.984474,166.027771 119.727791,162.559509 117.432961,159.736877 
	C112.739426,153.963821 106.683563,152.542404 99.773270,152.369476 
	C90.992332,152.149719 82.174080,153.255188 73.078293,151.440491 
	C71.343277,147.849731 72.238686,144.361099 72.123177,140.511322 
z"/>
<path fill="#29B3A3" opacity="1.000000" stroke="none" 
	d="
M28.727730,173.737457 
	C28.966389,179.890823 29.099121,185.803391 28.934530,191.707703 
	C28.822786,195.716263 29.359758,199.535217 30.954153,203.610779 
	C34.179352,216.961243 41.242535,227.306015 52.380539,234.605225 
	C61.729160,240.731766 71.859940,240.490021 81.811493,236.361130 
	C85.982994,234.630371 90.073662,232.479309 93.650291,229.354675 
	C97.732941,225.787933 102.583687,226.781250 107.423988,230.895630 
	C114.182678,236.640671 117.874039,243.607208 117.038452,252.669724 
	C116.871178,254.483948 117.039124,256.327179 117.007492,258.156219 
	C116.930565,262.605591 118.955162,264.944305 123.545410,265.043884 
	C129.659393,265.176514 130.186981,264.446014 131.131668,258.679016 
	C132.030396,253.192688 130.271469,247.824661 131.186401,241.908112 
	C134.282349,248.611191 133.209549,256.155914 132.695160,263.542999 
	C132.412613,267.600525 127.897217,270.487366 123.877541,270.005554 
	C119.364586,269.464661 116.516846,266.789398 116.084381,262.257904 
	C115.721855,258.459259 116.081802,254.597763 115.923630,250.772293 
	C115.533394,241.334167 109.489861,234.178268 100.404144,231.711304 
	C97.809715,231.006882 96.056992,231.539169 94.052811,233.119125 
	C87.564140,238.234268 80.455544,242.171539 72.054657,243.020462 
	C58.424236,244.397842 48.094620,238.340378 40.278145,227.837738 
	C28.530931,212.053589 24.901251,194.185471 28.022182,174.454819 
	C28.240744,173.863998 28.367952,173.678574 28.727730,173.737457 
z"/>
<path fill="#34EEAB" opacity="1.000000" stroke="none" 
	d="
M124.487610,95.145920 
	C125.428009,84.317001 130.875305,75.290077 135.869797,66.111473 
	C140.799713,57.051563 145.996490,48.137211 150.989594,39.111107 
	C152.397049,36.566837 153.319626,35.740223 155.220642,38.862968 
	C159.520111,45.925583 162.088593,53.027538 162.029572,61.736618 
	C161.525269,136.163437 161.507217,210.593552 161.172455,285.358521 
	C158.851273,282.729370 160.628220,279.528412 160.610580,276.484161 
	C160.448624,248.514023 161.285217,220.516296 160.331177,192.577805 
	C158.967545,152.645142 160.191788,112.723877 159.480713,72.384430 
	C158.564011,68.540222 158.915390,65.027878 158.914108,61.574753 
	C158.912964,58.459297 158.157059,55.730228 156.723831,53.051510 
	C154.376038,48.663475 152.142227,48.379089 149.729736,52.574005 
	C146.915466,57.467560 143.468338,61.950146 140.699188,66.846046 
	C137.195480,73.040680 133.235657,78.980141 130.044312,85.760010 
	C128.173187,88.677452 128.190872,92.076607 125.746902,94.708633 
	C125.265915,95.066467 125.046852,95.171585 124.487610,95.145920 
z"/>
<path fill="#01E393" opacity="1.000000" stroke="none" 
	d="
M221.316254,53.645535 
	C220.179092,55.937508 218.505829,56.077351 216.359329,56.002052 
	C213.602875,56.016529 213.808563,53.834351 213.141403,52.500076 
	C209.519409,45.256588 201.061020,41.000771 193.632034,42.791500 
	C185.828278,44.672565 180.398453,51.646523 180.298752,59.810474 
	C180.264389,62.624252 180.653076,65.473473 179.589172,68.577423 
	C177.642639,70.271454 176.382507,69.169556 175.282883,67.967186 
	C173.879440,66.432617 172.481140,64.898476 170.731018,63.149815 
	C169.532593,60.473385 170.201736,58.113522 170.307449,55.390366 
	C170.233765,54.237099 170.318527,53.448845 170.652725,52.346161 
	C171.100845,51.430771 171.454239,50.898651 171.767944,50.005627 
	C171.865631,49.705837 171.856522,49.315567 171.982117,49.166153 
	C173.840897,47.003605 175.344421,44.832504 176.786316,42.215687 
	C177.440155,41.345074 177.905334,40.747990 178.645874,40.058498 
	C187.427200,34.382233 196.349747,31.600929 206.577988,34.948700 
	C209.835419,36.014877 212.346283,38.111370 215.614349,39.795898 
	C215.941742,40.025852 216.001663,40.007656 215.992081,40.037468 
	C216.152313,40.212749 216.322113,40.358219 216.701416,40.765617 
	C216.910919,41.027546 216.982742,41.011261 216.971252,41.046246 
	C218.191208,42.875713 219.184875,44.826584 220.784302,46.760757 
	C221.021423,46.986538 220.999344,46.999451 221.007660,46.989197 
	C221.839493,49.025246 222.342957,51.102531 221.316254,53.645535 
z"/>
<path fill="#17C5AD" opacity="1.000000" stroke="none" 
	d="
M179.296448,202.631699 
	C172.119614,201.913040 172.089539,201.993256 171.958160,209.150970 
	C171.923981,211.012405 172.723236,213.062805 170.820587,214.874954 
	C170.452347,199.888168 170.414795,184.759140 170.413162,169.630112 
	C170.410156,141.513763 170.428085,113.397408 170.601746,84.878761 
	C172.968796,86.225342 172.356857,88.726799 172.364365,90.971512 
	C172.426208,109.466530 172.598572,127.965271 172.283127,146.455032 
	C172.179031,152.556381 173.759399,157.197723 179.313843,160.773529 
	C180.513519,162.824020 180.576324,164.660980 180.585907,166.491745 
	C180.638992,176.637131 180.632324,186.782669 180.589371,196.928085 
	C180.581619,198.756485 180.564392,200.599457 179.296448,202.631699 
z"/>
<path fill="#32BBA3" opacity="1.000000" stroke="none" 
	d="
M71.943802,140.408920 
	C73.822998,143.313156 72.579140,146.770065 72.966110,150.551315 
	C74.960320,153.173019 74.170303,155.968964 74.609703,158.477921 
	C75.316956,162.516159 76.848343,166.303284 77.938683,170.623657 
	C78.720680,175.970764 82.225227,179.158508 85.712624,182.063156 
	C94.502342,189.384140 104.911987,192.677872 116.245392,192.943298 
	C119.086411,193.009811 121.439140,193.518539 123.636574,195.851669 
	C130.762772,203.592056 137.567368,211.164383 144.667114,218.898682 
	C147.183365,237.645584 145.432632,256.301910 145.959747,274.917419 
	C145.987595,275.900940 146.102524,276.939148 144.899872,277.861084 
	C143.701431,263.899780 144.057297,249.758270 144.658752,235.669525 
	C145.063141,226.197006 143.325256,218.274033 135.566727,212.294250 
	C134.390244,211.387482 133.270432,210.337646 132.355209,209.172668 
	C126.185219,201.319046 118.652794,197.629593 108.259743,195.971603 
	C83.273041,191.985489 70.712830,175.116333 71.069008,149.668365 
	C71.110710,146.688644 71.487083,143.713593 71.943802,140.408920 
z"/>
<path fill="#0FC4A5" opacity="1.000000" stroke="none" 
	d="
M124.042114,95.423820 
	C124.147415,95.015137 124.576057,95.014465 124.790314,95.008987 
	C127.813087,99.353188 125.969215,104.198074 126.468170,109.203857 
	C125.733330,118.596672 131.136200,124.778999 136.355164,130.980331 
	C138.581787,133.626099 141.182983,135.954178 144.004425,138.591248 
	C147.353195,141.816559 148.383789,145.530411 148.391937,149.655869 
	C148.399765,153.619217 148.372757,157.582779 148.411545,161.545868 
	C148.467072,167.222046 149.544983,168.390274 155.223236,169.004150 
	C156.842697,169.179230 158.551636,168.785141 160.246490,170.161591 
	C160.487061,175.760345 160.542709,180.974854 160.200012,186.594940 
	C156.502335,187.041412 153.132782,187.176788 150.050629,184.794189 
	C147.800476,183.054718 146.278992,184.544617 146.072372,187.034149 
	C145.867279,189.505615 146.151627,192.017975 145.942551,194.488800 
	C145.683655,197.548050 144.243347,197.840179 142.073914,195.372284 
	C143.480591,195.683167 144.821060,196.341522 144.812943,193.651520 
	C144.766312,178.199387 144.766647,162.747025 144.804169,147.294876 
	C144.808395,145.553223 143.770813,144.611496 142.674042,143.581055 
	C140.616089,141.647568 138.620361,139.647766 136.559464,137.717499 
	C124.254303,126.192337 121.053955,111.930855 124.042114,95.423820 
z"/>
<path fill="#04D79E" opacity="1.000000" stroke="none" 
	d="
M105.254364,141.656250 
	C103.700722,142.055023 102.433311,141.885895 101.368568,140.898224 
	C94.084991,134.141800 85.144295,133.478806 75.417831,134.000458 
	C72.841393,128.962280 76.688652,125.075920 77.660439,120.211136 
	C77.780869,119.812294 77.888763,119.920074 77.816162,119.896774 
	C79.200333,119.038757 78.016411,116.882935 79.659416,115.751251 
	C79.698410,115.380615 79.631783,115.149391 79.711166,115.058975 
	C80.225517,114.766342 80.559708,114.458542 80.668716,113.693054 
	C80.561211,113.358612 80.525970,113.117104 80.604340,113.023560 
	C81.459114,112.690498 81.491669,111.998383 81.732880,111.056671 
	C81.959923,110.328476 82.085205,109.914909 82.433334,109.262650 
	C82.979355,108.497375 83.367928,108.010567 83.767075,107.168335 
	C84.131821,106.375267 84.348862,105.854218 84.794205,105.158821 
	C86.632111,102.966232 88.020020,102.752533 88.525139,105.668694 
	C89.006050,108.445198 89.929886,111.103767 90.474632,113.844849 
	C92.049583,121.769722 96.195786,128.233597 101.459526,134.150314 
	C103.298615,136.217545 105.541267,138.143341 105.254364,141.656250 
z"/>
<path fill="#2DE9AA" opacity="1.000000" stroke="none" 
	d="
M105.212280,142.293854 
	C104.086945,137.479996 100.376297,134.799866 97.662277,131.589935 
	C91.601982,124.422302 89.186874,116.041328 87.990227,107.070114 
	C87.813103,105.742233 88.382240,103.599396 85.352463,104.866096 
	C85.363853,103.481735 86.017502,101.615448 87.508904,101.681107 
	C89.437233,101.765991 88.840294,104.002579 89.121956,105.321091 
	C91.447327,116.206558 96.969276,125.305847 104.585938,133.238235 
	C110.102188,138.983139 115.966064,144.422043 121.160393,150.441406 
	C128.039856,158.413528 132.123779,167.743042 132.344467,178.742798 
	C131.950089,179.200241 131.753250,179.365356 131.278198,179.263794 
	C130.999344,178.830109 130.998703,178.663086 130.986511,178.245819 
	C128.547104,174.576843 126.744705,170.914963 126.788773,166.314972 
	C121.359314,156.762604 114.525642,148.604080 105.212280,142.293854 
z"/>
<path fill="#32BBA3" opacity="1.000000" stroke="none" 
	d="
M159.985077,187.469360 
	C159.983047,181.640518 159.989426,176.280182 159.982452,170.451340 
	C158.391113,168.218948 158.433319,166.027573 158.429092,163.881958 
	C158.413437,155.943237 158.317368,148.004150 158.492676,139.581207 
	C158.317703,130.083847 158.389175,121.070633 158.496216,111.576324 
	C158.331787,103.401657 158.393387,95.707710 158.500641,87.530998 
	C158.677399,81.577446 157.559265,76.036819 159.760895,70.316284 
	C161.628326,71.896515 160.909485,74.148781 160.911087,76.237564 
	C160.964752,145.763840 160.969910,215.290146 160.991699,285.255371 
	C160.878433,286.497314 160.377975,286.834900 159.280670,286.720978 
	C161.132034,262.411774 159.487122,238.159027 159.963745,213.467957 
	C159.960800,204.645630 159.977127,196.291763 159.985077,187.469360 
z"/>
<path fill="#1BC3AD" opacity="1.000000" stroke="none" 
	d="
M288.453735,225.219727 
	C288.903992,220.826981 291.371735,216.638031 290.997467,211.418762 
	C288.411987,207.243118 290.117096,202.633774 288.340942,198.556290 
	C286.624451,194.615662 285.104645,190.637894 282.749237,187.007355 
	C278.440704,180.366379 278.730011,178.636459 284.987640,173.424011 
	C293.943390,164.055969 296.499237,153.008316 295.623657,140.437775 
	C295.688171,138.832047 295.934357,137.703720 297.032593,136.499969 
	C301.690125,149.510406 296.705505,168.289871 285.973450,176.766129 
	C282.321350,179.650574 282.703857,181.320847 284.995728,184.635284 
	C293.771881,197.327026 295.845917,210.809937 288.453735,225.219727 
z"/>
<path fill="#19CDA5" opacity="1.000000" stroke="none" 
	d="
M179.280823,160.652573 
	C173.151016,159.274063 171.006851,156.604401 171.000290,150.967575 
	C170.974747,129.033493 170.969940,107.099380 170.861786,84.820877 
	C170.643356,83.553505 170.520538,82.630547 170.549820,81.264908 
	C172.679581,80.088829 172.825790,80.272766 173.404541,84.609055 
	C175.165756,104.765923 174.414429,124.525108 174.485214,144.266785 
	C174.498749,148.044022 175.257324,151.152893 179.094833,153.427307 
	C180.570709,155.915390 180.657227,158.089676 179.280823,160.652573 
z"/>
<path fill="#15F0A8" opacity="1.000000" stroke="none" 
	d="
M86.129517,203.677826 
	C74.422256,198.160461 60.917522,197.877151 49.525837,191.338882 
	C44.796860,188.624695 41.012772,185.130539 37.998596,180.300995 
	C41.806812,178.358734 42.564529,183.104858 45.717361,183.777802 
	C46.031525,183.975342 45.999683,184.000000 46.011009,183.983307 
	C50.196030,187.528488 55.179287,189.438324 60.677422,190.983887 
	C61.445484,191.027985 61.877388,191.071640 62.619118,191.217926 
	C66.459061,193.920914 71.064941,193.506500 74.819588,195.590332 
	C76.514496,196.531006 78.361885,197.266403 80.435730,198.301666 
	C82.089355,198.971725 83.235451,199.806900 84.685280,200.814880 
	C84.963470,201.031570 84.998344,200.998779 84.984428,201.017593 
	C85.537140,201.733170 86.001244,202.485886 86.129517,203.677826 
z"/>
<path fill="#0FCEA4" opacity="1.000000" stroke="none" 
	d="
M297.428131,136.214325 
	C297.284241,137.539505 297.146637,138.798889 297.006165,140.529419 
	C295.522705,142.159225 294.724152,143.720230 294.246094,145.506317 
	C293.867126,146.922089 293.541779,148.455154 291.209412,148.346252 
	C287.909363,144.531433 289.075562,139.685287 287.272919,135.295807 
	C292.190735,124.964767 285.674286,119.763985 278.842377,114.695961 
	C277.514709,113.711090 275.996826,112.956268 274.893921,111.204300 
	C274.748657,110.638802 274.744324,110.400764 275.010651,109.929749 
	C285.572357,114.338890 292.866852,121.732719 296.289856,132.994659 
	C296.227783,134.145691 296.468109,134.884521 297.016602,135.841583 
	C297.338989,136.056961 297.434387,136.148514 297.428131,136.214325 
z"/>
<path fill="#11DD9B" opacity="1.000000" stroke="none" 
	d="
M172.356842,84.308258 
	C171.621902,82.912956 172.809402,81.409294 170.933090,80.720253 
	C169.770966,76.871666 170.289490,72.841393 170.128784,68.393440 
	C170.961716,66.645447 169.822235,65.343163 170.625931,63.521576 
	C174.914627,63.157696 175.164291,67.808128 178.636536,68.965805 
	C181.788910,73.974640 180.351685,79.259430 179.960663,84.885681 
	C177.125473,88.121040 174.964142,85.821510 172.356842,84.308258 
z"/>
<path fill="#11DD9B" opacity="1.000000" stroke="none" 
	d="
M215.839264,39.701660 
	C211.756805,40.201359 208.957794,36.877506 205.315933,35.544285 
	C196.823120,32.435204 189.943634,35.296371 182.837982,38.795574 
	C181.806122,39.303719 180.921768,40.061455 179.305206,39.980675 
	C188.161469,30.531546 204.988739,30.262505 215.839264,39.701660 
z"/>
<path fill="#11DD9B" opacity="1.000000" stroke="none" 
	d="
M250.268784,59.703743 
	C246.712616,60.695717 244.213791,58.027245 241.035751,57.958145 
	C237.222031,57.875229 233.583069,58.501610 229.941483,59.490772 
	C227.962952,60.028202 225.830536,60.938133 224.067017,58.397335 
	C230.416565,57.632099 236.768814,55.946053 243.257538,56.946407 
	C245.373077,57.272560 247.459671,57.786354 249.827072,58.476788 
	C250.241791,58.961590 250.388947,59.183929 250.268784,59.703743 
z"/>
<path fill="#43E9AF" opacity="1.000000" stroke="none" 
	d="
M45.905941,183.666092 
	C42.500355,184.668396 41.479904,180.683228 38.316399,179.989777 
	C36.213108,179.069977 35.706066,177.351913 35.053802,175.369492 
	C34.883797,174.867233 34.756706,174.698227 34.766094,174.242920 
	C34.921936,173.772659 34.941307,173.588730 35.051132,173.142090 
	C38.687843,176.371857 42.234100,179.864349 45.905941,183.666092 
z"/>
<path fill="#43E9AF" opacity="1.000000" stroke="none" 
	d="
M81.149521,198.838593 
	C75.558472,197.320557 70.750114,193.808624 64.782661,193.639969 
	C64.205177,193.623642 63.656563,192.585495 63.011745,191.671112 
	C69.156189,192.388077 75.045731,194.406937 80.747345,197.838959 
	C81.089119,198.271744 81.213173,198.434067 81.149521,198.838593 
z"/>
<path fill="#0FCEA4" opacity="1.000000" stroke="none" 
	d="
M270.760132,89.265076 
	C271.085510,87.727402 270.719055,86.376869 272.000061,85.057114 
	C273.731201,91.099426 271.413696,96.753487 268.959656,102.436394 
	C267.834137,101.128067 267.808411,99.865845 268.755676,98.309799 
	C268.688141,97.185516 268.138214,96.387253 268.923157,95.252579 
	C269.448151,93.159714 269.581482,91.236122 270.760132,89.265076 
z"/>
<path fill="#43E9AF" opacity="1.000000" stroke="none" 
	d="
M60.794132,190.713165 
	C54.849113,191.687286 50.414242,188.304169 46.054802,184.316391 
	C50.873119,186.125076 55.723904,188.283539 60.794132,190.713165 
z"/>
<path fill="#32BBA3" opacity="1.000000" stroke="none" 
	d="
M77.498901,120.023056 
	C78.319466,124.573273 74.046494,128.316315 74.953659,133.578461 
	C74.338264,134.962021 73.727066,135.923294 72.844414,136.960114 
	C72.874947,131.090668 75.025307,125.656532 77.498901,120.023056 
z"/>
<path fill="#29B3A3" opacity="1.000000" stroke="none" 
	d="
M113.144798,218.354004 
	C108.017754,217.373810 102.718796,216.094925 97.228485,214.493713 
	C102.665298,214.168427 108.034409,215.228455 113.144798,218.354004 
z"/>
<path fill="#53D3B6" opacity="1.000000" stroke="none" 
	d="
M29.091499,173.660873 
	C28.960297,173.981766 28.536900,174.015518 28.325218,174.032471 
	C28.165779,173.066132 28.069708,172.046021 28.302582,171.107544 
	C28.726488,169.399231 28.360062,166.747192 30.268757,166.364105 
	C32.686604,165.878845 32.850311,168.794266 33.887695,170.682709 
	C31.301846,169.729843 29.689989,170.375107 29.091499,173.660873 
z"/>
<path fill="#11DD9B" opacity="1.000000" stroke="none" 
	d="
M221.256927,54.185547 
	C220.997498,51.947613 220.990311,49.901966 220.999542,47.417633 
	C223.101990,49.706730 223.767914,52.887253 223.873108,56.615143 
	C222.019196,57.003765 222.177048,55.334148 221.256927,54.185547 
z"/>
<path fill="#11DD9B" opacity="1.000000" stroke="none" 
	d="
M176.659500,42.061405 
	C176.979721,45.107590 175.303848,47.267773 172.451508,48.973320 
	C172.524582,46.121304 174.558548,44.227978 176.659500,42.061405 
z"/>
<path fill="#4BE5B6" opacity="1.000000" stroke="none" 
	d="
M86.008507,203.996277 
	C85.684555,203.219345 85.350044,202.444687 84.993019,201.353226 
	C87.565720,202.125381 89.371284,204.081436 90.880676,206.728867 
	C89.745552,206.542038 88.582603,206.019638 87.225815,205.241638 
	C86.769867,204.795975 86.542709,204.570663 86.175011,204.145538 
	C85.999527,203.980942 85.997948,203.998566 86.008507,203.996277 
z"/>
<path fill="#0BD59E" opacity="1.000000" stroke="none" 
	d="
M269.915222,75.668747 
	C266.595367,75.205170 265.788818,72.450249 265.035095,69.296310 
	C267.490631,70.436287 268.596619,72.958748 269.915222,75.668747 
z"/>
<path fill="#11DD9B" opacity="1.000000" stroke="none" 
	d="
M169.963303,55.384232 
	C171.834213,57.228172 170.647354,59.777447 171.008209,62.565414 
	C171.009155,62.990696 170.999313,63.000694 170.995392,63.004631 
	C170.775558,63.124741 170.559677,63.240921 170.034698,63.157822 
	C168.782120,60.546474 169.183456,58.144100 169.963303,55.384232 
z"/>
<path fill="#11DD9B" opacity="1.000000" stroke="none" 
	d="
M220.999817,46.643806 
	C218.416245,46.239376 217.449829,44.212475 216.966614,41.442070 
	C219.101776,42.203369 219.941940,44.327702 220.999817,46.643806 
z"/>
<path fill="#0BD59E" opacity="1.000000" stroke="none" 
	d="
M261.942596,65.649872 
	C259.541931,66.213196 257.897430,65.111626 257.030762,62.392910 
	C259.095520,62.422409 260.355560,64.035591 261.942596,65.649872 
z"/>
<path fill="#17C5AD" opacity="1.000000" stroke="none" 
	d="
M170.661896,260.316040 
	C172.776657,261.126740 171.764923,263.001648 171.900742,264.968597 
	C170.676254,263.992065 170.626770,262.306885 170.661896,260.316040 
z"/>
<path fill="#19CDA5" opacity="1.000000" stroke="none" 
	d="
M169.585022,63.295891 
	C170.006699,62.972015 170.287827,62.984547 170.780228,63.002354 
	C170.890442,64.469833 170.789444,65.931099 170.451172,67.663055 
	C169.957428,66.500237 169.700943,65.066734 169.585022,63.295891 
z"/>
<path fill="#0FCEA4" opacity="1.000000" stroke="none" 
	d="
M272.140137,82.639847 
	C270.425751,81.492981 270.878998,79.220207 270.119995,76.978760 
	C271.839508,78.101921 272.010803,80.180595 272.140137,82.639847 
z"/>
<path fill="#0FCEA4" opacity="1.000000" stroke="none" 
	d="
M268.953125,102.967438 
	C268.890045,104.057297 268.807373,105.136360 268.515625,106.799187 
	C265.066803,106.040794 265.833588,104.501434 268.490173,102.911346 
	C268.895020,102.933701 268.933502,102.956635 268.953125,102.967438 
z"/>
<path fill="#0BD59E" opacity="1.000000" stroke="none" 
	d="
M265.015625,68.632294 
	C263.459198,68.985359 262.402130,68.284584 262.052612,66.289566 
	C263.451874,66.187347 264.198334,67.254799 265.015625,68.632294 
z"/>
<path fill="#4BE5B6" opacity="1.000000" stroke="none" 
	d="
M81.176872,199.322906 
	C80.961823,199.080826 80.970367,198.595001 80.967720,198.352203 
	C82.600746,198.260666 83.645027,199.360413 84.832809,200.735565 
	C83.556480,201.069870 82.506310,200.239227 81.176872,199.322906 
z"/>
<path fill="#0FCEA4" opacity="1.000000" stroke="none" 
	d="
M270.879517,108.644699 
	C272.356537,108.311768 273.601044,108.751404 275.063416,109.443901 
	C275.281311,109.696762 275.113434,109.882301 275.031586,109.976944 
	C273.298065,111.283295 271.836029,111.247879 270.879517,108.644699 
z"/>
<path fill="#32BBA3" opacity="1.000000" stroke="none" 
	d="
M144.396545,285.275787 
	C145.450638,284.993286 146.431961,284.988403 146.972824,286.340515 
	C145.847443,287.005524 144.745193,287.185974 144.396545,285.275787 
z"/>
<path fill="#29B3A3" opacity="1.000000" stroke="none" 
	d="
M131.296707,240.609909 
	C129.852005,240.203629 129.076279,239.103378 129.701874,237.216492 
	C130.396454,238.098969 130.854233,239.174149 131.296707,240.609909 
z"/>
<path fill="#08BFAB" opacity="1.000000" stroke="none" 
	d="
M130.999817,179.398224 
	C131.190979,179.007843 131.381958,179.018585 131.859940,179.032227 
	C132.232895,179.986725 132.318863,180.938309 132.353943,182.246063 
	C132.401581,183.165527 132.443848,183.733032 132.175232,184.648346 
	C130.350464,183.485062 131.238861,181.542221 130.999817,179.398224 
z"/>
<path fill="#32BBA3" opacity="1.000000" stroke="none" 
	d="
M79.400085,115.591599 
	C79.267036,116.777382 78.835655,118.174149 78.073914,119.722191 
	C77.691872,118.348213 78.220741,117.016655 79.400085,115.591599 
z"/>
<path fill="#0BD59E" opacity="1.000000" stroke="none" 
	d="
M256.357666,61.536129 
	C255.279327,61.876354 253.841187,62.414471 253.095428,60.309673 
	C254.081604,60.364307 255.119751,60.806751 256.357666,61.536129 
z"/>
<path fill="#29B3A3" opacity="1.000000" stroke="none" 
	d="
M129.025604,234.686295 
	C128.035492,234.863220 126.958778,234.821609 127.776199,233.150925 
	C128.352402,233.448273 128.695236,233.914444 129.025604,234.686295 
z"/>
<path fill="#1BC3AD" opacity="1.000000" stroke="none" 
	d="
M286.461121,229.342621 
	C286.595856,228.472733 287.033447,227.423080 287.756042,226.184387 
	C287.615326,227.051178 287.189636,228.107025 286.461121,229.342621 
z"/>
<path fill="#32BBA3" opacity="1.000000" stroke="none" 
	d="
M83.673599,107.016190 
	C84.024315,107.681763 83.909866,108.383560 82.919495,108.940292 
	C82.914925,108.394653 83.173668,107.765358 83.673599,107.016190 
z"/>
<path fill="#19CDA5" opacity="1.000000" stroke="none" 
	d="
M171.625259,49.851406 
	C172.009705,50.464298 172.024658,51.192852 171.144791,51.901028 
	C171.063080,51.353477 171.223984,50.675228 171.625259,49.851406 
z"/>
<path fill="#1BC3AD" opacity="1.000000" stroke="none" 
	d="
M278.409393,239.103500 
	C278.236755,238.262039 278.778564,237.656372 279.895996,237.187347 
	C279.710144,237.757248 279.210999,238.390869 278.409393,239.103500 
z"/>
<path fill="#0BD59E" opacity="1.000000" stroke="none" 
	d="
M250.384750,60.002583 
	C250.012665,59.790684 250.023880,59.580143 250.064880,59.054428 
	C250.960541,58.956852 251.826462,59.174454 252.880768,59.671249 
	C252.302139,59.968273 251.535080,59.986107 250.384750,60.002583 
z"/>
<path fill="#1BC3AD" opacity="1.000000" stroke="none" 
	d="
M297.340210,135.673096 
	C296.540253,135.678802 296.135101,135.050842 296.187012,133.760376 
	C296.604797,134.000824 296.973114,134.645035 297.340210,135.673096 
z"/>
<path fill="#0FCEA4" opacity="1.000000" stroke="none" 
	d="
M268.995117,107.009644 
	C269.592316,107.118034 270.174774,107.247604 270.934631,107.624657 
	C271.112061,107.872139 271.008087,107.988258 270.955475,108.045746 
	C270.169708,108.588997 269.532379,108.437775 268.958923,107.442688 
	C268.951355,107.073555 268.980347,107.030815 268.995117,107.009644 
z"/>
<path fill="#1BC3AD" opacity="1.000000" stroke="none" 
	d="
M280.380096,237.170197 
	C280.414825,236.829208 280.700592,236.442184 281.238037,236.005951 
	C281.203522,236.345886 280.917328,236.735031 280.380096,237.170197 
z"/>
<path fill="#32BBA3" opacity="1.000000" stroke="none" 
	d="
M81.567703,110.929337 
	C81.669182,111.386070 81.503723,112.030098 81.010483,112.802063 
	C80.888725,112.325554 81.094749,111.721092 81.567703,110.929337 
z"/>
<path fill="#2DE9AA" opacity="1.000000" stroke="none" 
	d="
M132.123505,185.024780 
	C131.973541,184.455856 132.026642,183.919754 132.191406,182.992920 
	C132.502457,183.211960 132.701874,183.821701 132.819534,184.750153 
	C132.737778,185.068863 132.326553,185.057571 132.123505,185.024780 
z"/>
<path fill="#2DE9AA" opacity="1.000000" stroke="none" 
	d="
M133.215149,185.767441 
	C133.122406,185.864029 132.943451,185.670059 132.917877,185.610016 
	C132.892303,185.549988 133.144852,185.458633 133.144852,185.458633 
	C133.144852,185.458633 133.307877,185.670853 133.215149,185.767441 
z"/>
<path fill="#32BBA3" opacity="1.000000" stroke="none" 
	d="
M80.321609,113.563354 
	C80.498764,113.783554 80.436317,114.208496 80.082207,114.801003 
	C79.887695,114.568405 79.984848,114.168251 80.321609,113.563354 
z"/>
<path fill="#29B3A3" opacity="1.000000" stroke="none" 
	d="
M125.224060,228.594269 
	C124.969719,228.677628 124.638466,228.485870 124.272835,227.993332 
	C124.541351,227.901428 124.844254,228.110306 125.224060,228.594269 
z"/>
<path fill="#1BC3AD" opacity="1.000000" stroke="none" 
	d="
M277.344788,240.115967 
	C277.263397,239.888458 277.449921,239.577118 277.905518,239.183121 
	C277.987274,239.411026 277.799988,239.721573 277.344788,240.115967 
z"/>
<path fill="#11DD9B" opacity="1.000000" stroke="none" 
	d="
M216.865753,40.781441 
	C216.598923,40.938965 216.351059,40.761032 216.074921,40.280514 
	C216.261856,40.223301 216.541229,40.379318 216.865753,40.781441 
z"/>
<path fill="#1BC3AD" opacity="1.000000" stroke="none" 
	d="
M284.441284,232.369827 
	C284.324432,232.135193 284.481110,231.738647 284.939178,231.210785 
	C285.065338,231.455627 284.890076,231.831757 284.441284,232.369827 
z"/>
<path fill="#29B3A3" opacity="1.000000" stroke="none" 
	d="
M126.819595,230.783997 
	C126.508720,230.921051 126.275688,230.705917 126.082474,230.156128 
	C126.291443,230.121552 126.549828,230.325012 126.819595,230.783997 
z"/>
<path fill="#43E9AF" opacity="1.000000" stroke="none" 
	d="
M35.096001,172.620392 
	C34.827133,172.691315 34.510166,172.481628 34.179310,171.970581 
	C34.459579,171.892731 34.753738,172.116257 35.096001,172.620392 
z"/>
<path fill="#29B3A3" opacity="1.000000" stroke="none" 
	d="
M124.253250,227.484802 
	C123.986847,227.581329 123.654198,227.415512 123.315720,226.949921 
	C123.602257,226.840927 123.894638,227.031693 124.253250,227.484802 
z"/>
<path fill="#29B3A3" opacity="1.000000" stroke="none" 
	d="
M123.279175,226.425262 
	C123.012772,226.536606 122.671013,226.391373 122.320312,225.944153 
	C122.608849,225.817673 122.906326,225.993179 123.279175,226.425262 
z"/>
<path fill="#29B3A3" opacity="1.000000" stroke="none" 
	d="
M122.280197,225.422882 
	C122.013977,225.534424 121.672119,225.389771 121.321518,224.943161 
	C121.610039,224.816376 121.907303,224.991531 122.280197,225.422882 
z"/>
<path fill="#29B3A3" opacity="1.000000" stroke="none" 
	d="
M121.276619,224.421021 
	C121.012405,224.535492 120.669678,224.393875 120.311264,223.951508 
	C120.596420,223.822144 120.897263,223.993561 121.276619,224.421021 
z"/>
<path fill="#29B3A3" opacity="1.000000" stroke="none" 
	d="
M120.252487,223.438141 
	C119.997314,223.554474 119.654816,223.415009 119.276489,222.979752 
	C119.548828,222.850098 119.856995,223.016220 120.252487,223.438141 
z"/>
<path fill="#29B3A3" opacity="1.000000" stroke="none" 
	d="
M119.210838,222.491089 
	C118.959274,222.593353 118.613304,222.424255 118.203789,221.958221 
	C118.465645,221.847412 118.791039,222.033554 119.210838,222.491089 
z"/>
<path fill="#29B3A3" opacity="1.000000" stroke="none" 
	d="
M117.027725,220.705612 
	C116.834213,220.811295 116.530060,220.679977 116.101112,220.326920 
	C116.289909,220.226318 116.603500,220.347473 117.027725,220.705612 
z"/>
<path fill="#29B3A3" opacity="1.000000" stroke="none" 
	d="
M113.868454,218.781342 
	C113.775146,219.296570 113.565140,219.766861 113.273338,218.819336 
	C113.327164,218.609985 113.738831,218.621338 113.868454,218.781342 
z"/>
<path fill="#4BE5B6" opacity="1.000000" stroke="none" 
	d="
M92.798935,210.075439 
	C92.557693,210.011276 92.696388,209.679352 92.761841,209.512146 
	C93.175613,209.270920 93.420731,209.397156 93.550552,209.947083 
	C93.538467,210.170578 93.040176,210.139618 92.798935,210.075439 
z"/>
<path fill="#12F4A4" opacity="1.000000" stroke="none" 
	d="
M178.657501,86.410522 
	C178.970413,80.654503 178.981155,75.295845 178.986542,69.469864 
	C178.986710,66.022263 178.994736,63.041988 178.997360,60.061707 
	C179.005753,50.489334 185.797272,42.178638 194.796539,41.086338 
	C202.425415,40.160366 213.518387,44.798244 215.720062,55.767689 
	C215.937546,60.136200 214.744415,63.791786 211.758530,66.807663 
	C210.847000,67.728348 210.049011,68.877296 209.555679,70.069305 
	C208.790329,71.918526 208.131363,74.287529 209.990646,75.540443 
	C211.573853,76.607307 213.804169,76.368156 215.564346,74.914726 
	C217.985764,72.915321 220.306305,70.727875 222.956573,69.082512 
	C237.458038,60.079567 255.397919,65.013329 262.468323,80.472694 
	C266.073181,88.354698 264.668884,96.343048 259.008057,103.631393 
	C257.209564,105.757378 254.937469,105.225090 252.828018,105.333611 
	C250.506165,105.453064 248.157104,105.158302 245.863861,105.688484 
	C244.110870,106.093773 242.661255,106.979317 242.871094,109.044167 
	C243.058884,110.892105 244.600342,111.370468 246.152161,111.505127 
	C249.638275,111.807617 253.139664,111.541176 256.630768,111.661957 
	C269.915222,112.121552 279.279297,119.273804 286.829437,129.467484 
	C287.638519,130.559860 288.011047,131.843811 287.991882,133.613678 
	C290.002289,138.165314 289.950623,142.788239 290.982544,147.580200 
	C292.446106,149.657410 291.594330,151.399948 291.051544,153.494232 
	C290.318237,155.511093 289.712952,157.167450 289.095093,159.220322 
	C286.805206,163.906723 284.543579,168.159637 280.803711,171.416901 
	C277.446991,174.340469 274.058533,175.004623 269.828949,172.898758 
	C261.983856,168.992798 253.652237,166.766861 244.758942,167.304749 
	C243.928421,167.354980 243.085571,167.283051 242.264236,167.414124 
	C240.470245,167.700363 238.140091,167.772003 238.174774,170.152054 
	C238.210449,172.599625 240.580872,172.671417 242.363129,172.624054 
	C249.809433,172.426208 256.919312,173.689209 263.787476,176.656738 
	C268.443756,178.668579 272.702393,181.146439 276.425049,185.164154 
	C276.851715,185.626617 277.015900,185.817383 277.403320,186.311630 
	C278.276245,187.682785 278.958435,188.727264 280.043915,189.956039 
	C284.745056,196.603561 285.873688,203.743195 285.098480,211.641754 
	C284.912628,212.409897 284.910645,212.827438 284.914734,213.558121 
	C283.619690,216.338196 283.391876,219.289215 281.248474,221.743103 
	C281.009796,222.002304 280.973114,222.465820 280.966553,222.698212 
	C280.334320,223.743942 280.103943,224.789551 279.191467,225.776581 
	C272.625031,234.441498 264.314545,239.669312 253.869339,241.586334 
	C250.378220,242.227051 246.910873,241.818390 243.437653,241.998230 
	C241.557617,242.095596 240.889175,240.761963 240.183929,239.409668 
	C232.803986,225.258652 220.309464,220.291260 205.237869,219.993408 
	C202.086426,219.931137 199.121841,221.028854 199.316727,224.505508 
	C199.492371,227.638763 202.188187,229.254623 205.451508,228.943573 
	C214.548050,228.076553 221.981369,231.282501 228.297943,237.725464 
	C236.023651,245.605759 237.494156,254.249634 232.325272,264.800659 
	C230.449142,265.471832 230.181381,264.037811 229.497467,263.221802 
	C224.499756,257.258667 218.867706,251.915283 213.136658,246.685623 
	C211.211502,244.928864 209.102432,243.214371 205.929810,242.910660 
	C201.392075,240.192490 197.869141,236.420441 192.731201,235.399185 
	C191.432343,235.141006 190.189316,234.558517 188.852432,234.475876 
	C186.826294,234.350647 184.489792,234.185913 183.985489,236.742783 
	C183.552917,238.936081 185.391266,240.080719 187.244370,240.499298 
	C197.111771,242.728104 202.041641,249.362762 203.988983,258.813812 
	C204.382858,260.725464 204.689682,263.304138 207.397339,262.872803 
	C210.392853,262.395569 209.656509,259.649872 209.603027,257.571564 
	C209.534576,254.910629 208.110199,252.439240 208.556366,249.379044 
	C211.279816,247.465622 212.255600,249.656281 213.439407,251.138275 
	C218.132507,257.013550 223.114197,262.570465 229.893433,266.754486 
	C227.694641,274.881256 221.018143,277.719086 214.207886,279.658539 
	C202.859299,282.890472 193.074356,279.084076 184.761307,271.220398 
	C180.114960,266.825195 178.997086,260.987640 178.998566,254.414963 
	C178.014420,250.637955 178.694016,247.228745 178.778824,243.436951 
	C178.996689,241.295685 179.006027,239.570190 179.007446,237.413483 
	C178.875076,236.821609 178.750656,236.660934 178.812622,236.259033 
	C179.001648,229.991287 179.004303,223.964783 179.002029,217.470123 
	C178.231277,215.994507 178.589050,214.838943 178.778351,213.366821 
	C178.989594,209.967331 178.988815,206.934555 178.972107,203.446899 
	C178.964310,189.308823 178.972412,175.625595 178.962952,161.474731 
	C178.959869,158.969986 178.974350,156.932922 178.984848,154.459686 
	C177.443481,152.244553 177.402222,150.066742 177.397385,147.901718 
	C177.355835,129.313049 177.356781,110.724335 177.398117,92.135666 
	C177.402161,90.312317 177.409424,88.470749 178.657501,86.410522 
z"/>
<path fill="#03C5AB" opacity="1.000000" stroke="none" 
	d="
M285.303223,211.956177 
	C283.855927,210.166183 283.925171,208.153580 284.004181,206.158707 
	C284.230988,200.433716 281.957642,195.484161 279.134613,190.329895 
	C278.320007,189.239883 278.161285,188.156906 277.196777,187.224976 
	C276.973755,187.018799 276.997559,186.998779 276.989075,187.009872 
	C276.377838,186.047653 275.792114,185.052704 275.305817,184.027359 
	C274.065582,181.412338 273.065002,178.440781 275.887024,176.464783 
	C278.825958,174.406967 281.383789,170.257660 286.023010,173.595795 
	C285.526733,175.174438 284.465759,175.658112 283.494354,176.313293 
	C280.665588,178.221115 280.000671,180.759201 282.096527,183.544388 
	C285.900055,188.598969 288.437408,194.254074 290.453857,200.186859 
	C291.556702,203.431732 290.752441,206.785049 290.997345,210.535233 
	C289.141022,210.807709 287.402374,211.283447 285.303223,211.956177 
z"/>
<path fill="#0CF8A2" opacity="1.000000" stroke="none" 
	d="
M230.416290,266.999878 
	C226.100952,266.900787 223.672424,263.961365 221.173065,261.538849 
	C217.123672,257.613953 213.497116,253.252808 209.338760,249.038879 
	C205.713425,248.062592 206.699509,244.901550 205.835541,242.389114 
	C208.987106,241.299698 211.010025,243.247269 212.898727,244.996475 
	C219.517685,251.126648 226.752228,256.693726 231.766693,264.816895 
	C231.938522,265.897461 231.712952,266.682343 230.416290,266.999878 
z"/>
<path fill="#03C5AB" opacity="1.000000" stroke="none" 
	d="
M281.360809,221.946472 
	C281.996796,219.324646 282.462067,216.434708 284.577698,213.973953 
	C285.202515,217.085129 284.338226,219.840439 281.360809,221.946472 
z"/>
<path fill="#17C5AD" opacity="1.000000" stroke="none" 
	d="
M178.700165,243.304901 
	C178.994843,246.370209 179.002350,249.719238 178.999161,253.523560 
	C177.133789,250.607559 178.065018,247.081940 178.700165,243.304901 
z"/>
<path fill="#03C5AB" opacity="1.000000" stroke="none" 
	d="
M279.322021,225.940094 
	C278.997498,224.840637 279.481506,223.930664 280.679810,223.088791 
	C280.933197,224.092133 281.241211,225.399124 279.322021,225.940094 
z"/>
<path fill="#00CAA2" opacity="1.000000" stroke="none" 
	d="
M178.729523,213.210419 
	C178.998962,214.067276 179.007553,215.134430 179.006638,216.601776 
	C177.682098,215.976273 177.809845,214.737686 178.729523,213.210419 
z"/>
<path fill="#17C5AD" opacity="1.000000" stroke="none" 
	d="
M178.834518,236.101776 
	C178.999008,236.017807 179.011673,236.500275 179.005585,236.741287 
	C178.889679,236.716782 178.779861,236.451279 178.834518,236.101776 
z"/>
<path fill="#01CBA5" opacity="1.000000" stroke="none" 
	d="
M126.675644,165.969788 
	C128.322678,169.751740 129.622711,173.499680 130.948837,177.621597 
	C124.134789,171.477524 115.688774,170.716614 106.816322,170.946579 
	C97.510963,171.187805 88.194618,171.004990 78.406761,171.017242 
	C73.541748,165.362289 72.939491,158.714371 72.968056,151.452988 
	C81.630569,151.001617 90.293533,151.161484 98.947578,150.952408 
	C106.761353,150.763626 113.548569,152.304077 118.654861,158.977295 
	C120.706360,161.658310 122.997383,164.477737 126.675644,165.969788 
z"/>
<path fill="#15F0A8" opacity="1.000000" stroke="none" 
	d="
M34.745075,174.068420 
	C34.930847,174.135330 34.959122,174.314087 34.999146,174.764557 
	C34.869785,174.750916 34.728683,174.465576 34.745075,174.068420 
z"/>
<path fill="#15F0A8" opacity="1.000000" stroke="none" 
	d="
M86.102768,204.210358 
	C86.271080,204.165665 86.542641,204.350372 86.923088,204.760559 
	C86.756653,204.803955 86.481331,204.621857 86.102768,204.210358 
z"/>
<path fill="#0BD59E" opacity="1.000000" stroke="none" 
	d="
M288.276184,133.765381 
	C283.162628,124.553734 275.398712,118.398529 265.757416,114.432121 
	C259.196991,111.733177 252.270203,113.480431 245.526321,112.972260 
	C243.496994,112.819336 241.416641,112.548790 241.057495,109.953552 
	C240.738556,107.648964 241.085678,105.539261 243.694153,104.731422 
	C244.938019,104.346199 246.262909,104.071892 247.559174,104.035576 
	C251.049393,103.937813 254.543961,103.995056 258.498566,103.987671 
	C261.345245,103.694168 263.174164,102.656097 264.362244,100.439758 
	C265.148560,98.972946 266.407196,97.932640 268.628418,98.005722 
	C268.983856,99.371407 268.968903,100.742210 268.924500,102.523354 
	C267.472046,104.087776 265.879395,105.216644 268.625549,107.007553 
	C269.413086,107.382126 269.874786,107.690697 270.619690,108.051247 
	C271.222168,110.096245 272.754883,109.998199 274.582397,110.048416 
	C278.786499,113.601868 283.190491,116.420845 286.876068,120.196587 
	C290.034302,123.432106 292.458832,126.223969 289.267761,130.708115 
	C288.743744,131.444473 288.775818,132.576569 288.276184,133.765381 
z"/>
<path fill="#0BD59E" opacity="1.000000" stroke="none" 
	d="
M270.621094,89.001549 
	C270.575287,90.942200 272.039948,93.284058 269.395996,94.923981 
	C267.857544,94.230972 265.791962,94.087082 266.234253,92.071144 
	C266.663757,90.113541 268.163788,89.052422 270.621094,89.001549 
z"/>
<path fill="#00DD98" opacity="1.000000" stroke="none" 
	d="
M159.606812,86.715118 
	C159.989105,94.691177 159.992401,102.376862 159.981461,110.530952 
	C158.814270,112.079201 157.385452,112.470909 155.870651,112.498611 
	C146.786301,112.664726 137.701248,112.732895 128.617706,112.456902 
	C127.622902,112.426666 126.664848,112.129547 125.403023,111.303810 
	C125.005898,105.979836 125.002563,100.958153 125.001892,95.469986 
	C126.134346,92.129639 127.264130,89.255775 128.667465,86.152664 
	C139.048798,85.354652 149.160004,84.578758 159.606812,86.715118 
z"/>
<path fill="#00E493" opacity="1.000000" stroke="none" 
	d="
M160.001038,86.537498 
	C149.836319,86.707840 139.669098,87.581329 129.235901,86.233994 
	C131.295090,78.571510 136.114685,72.533646 139.757645,65.874603 
	C142.534470,60.798756 146.419418,56.361904 148.921066,51.075954 
	C149.828735,49.158054 151.232254,47.944901 153.563660,47.908955 
	C156.210312,47.868145 156.412781,49.937332 157.514526,51.581703 
	C161.233856,57.132828 159.809143,63.255871 160.083099,69.589294 
	C160.078598,75.339279 160.047440,80.704391 160.001038,86.537498 
z"/>
<path fill="#03D69D" opacity="1.000000" stroke="none" 
	d="
M125.004982,111.411072 
	C136.351898,111.000656 147.694565,110.999779 159.502228,110.999130 
	C159.973022,120.020737 159.978806,129.042114 159.969238,138.531921 
	C154.618423,141.355331 149.174088,139.815201 143.386658,139.227356 
	C135.765015,132.919998 129.368973,126.202797 125.983917,117.090157 
	C125.334023,115.340599 124.908951,113.656715 125.004982,111.411072 
z"/>
<path fill="#02CEA3" opacity="1.000000" stroke="none" 
	d="
M143.165802,139.317993 
	C148.368973,138.373245 153.727386,138.419739 159.519897,139.000061 
	C159.964890,149.016739 159.975876,159.033096 159.977982,169.516144 
	C157.974915,169.596191 156.310272,171.162323 154.144272,170.637421 
	C147.031067,168.913666 147.002121,169.032227 146.999832,161.528091 
	C146.998596,157.536209 146.925888,153.542633 147.018280,149.552917 
	C147.107010,145.721802 146.151016,142.345490 143.165802,139.317993 
z"/>
<path fill="#02C9A6" opacity="1.000000" stroke="none" 
	d="
M286.312744,173.861847 
	C281.369507,171.270828 279.383881,176.127213 276.294678,177.594223 
	C273.768890,178.793640 275.803101,181.098206 276.119781,182.901825 
	C276.317810,184.029541 276.688843,185.126907 276.981415,186.629425 
	C267.079224,177.551086 255.244400,173.339813 241.612015,174.013382 
	C238.835739,174.150574 236.366898,173.414383 236.152573,170.268997 
	C235.924042,166.915039 238.754883,166.276443 241.262482,166.058197 
	C250.709274,165.236099 259.821869,166.731049 268.423187,170.758804 
	C275.474060,174.060486 279.338989,173.107162 283.690826,166.492950 
	C285.149902,164.275375 286.392944,161.915680 287.880188,159.308411 
	C289.371429,157.854568 290.265411,156.508301 290.000549,154.322510 
	C290.323395,152.258804 290.648468,150.509979 290.984924,148.375748 
	C293.399384,147.728348 292.951599,145.864319 292.997711,144.338074 
	C293.061920,142.213043 294.039795,141.055344 296.608765,141.006561 
	C297.934265,153.298752 295.290558,164.461685 286.312744,173.861847 
z"/>
<path fill="#02D49E" opacity="1.000000" stroke="none" 
	d="
M178.600464,85.968536 
	C178.972534,108.369118 178.985397,130.725067 178.989563,153.552277 
	C174.501755,153.318466 172.699905,151.019684 172.878540,146.199860 
	C173.260315,135.899048 172.751816,125.566948 173.061234,115.261269 
	C173.365936,105.113182 172.159454,95.048836 172.016098,84.476379 
	C174.397690,83.660049 176.143005,85.367958 178.600464,85.968536 
z"/>
<path fill="#00C78E" opacity="1.000000" stroke="none" 
	d="
M252.864075,125.572701 
	C252.032639,126.441330 251.458572,127.043587 250.863815,127.624641 
	C241.488739,136.783585 244.163040,134.428421 253.087387,139.744675 
	C257.860565,142.588089 262.323456,145.552795 265.435150,150.159348 
	C267.039764,152.534882 268.437042,155.422958 265.395020,157.679840 
	C262.295227,159.979584 260.411652,157.867996 258.542847,155.343536 
	C254.270615,149.572388 248.157227,146.137802 241.841141,143.125854 
	C237.447861,141.030838 233.028778,141.853439 228.919067,144.073441 
	C221.215561,148.234756 212.938309,149.320450 204.368484,148.961395 
	C200.623138,148.804474 197.156693,147.757858 194.462967,144.977554 
	C193.251923,143.727570 191.172852,142.517548 192.520493,140.432388 
	C193.751587,138.527603 195.696045,137.795303 198.166397,138.513779 
	C201.174576,139.388672 204.271072,139.807404 207.433731,140.105713 
	C221.869812,141.467270 232.155411,134.327545 241.190201,124.298035 
	C243.178314,122.091026 245.415771,120.110558 247.483200,117.972382 
	C248.975708,116.428772 250.593369,115.303284 252.743713,116.493919 
	C255.086258,117.790970 255.207962,119.770256 254.179611,122.048363 
	C253.713348,123.081261 253.461121,124.210785 252.864075,125.572701 
z"/>
<path fill="#00C68E" opacity="1.000000" stroke="none" 
	d="
M198.547394,185.071671 
	C202.645325,186.028259 204.681381,189.431900 208.077347,191.012665 
	C220.599091,196.841309 232.534882,194.540848 244.424759,189.276230 
	C247.156815,188.066513 249.862823,186.773209 252.668884,185.762955 
	C255.087204,184.892319 258.177979,183.492767 259.703217,186.517105 
	C261.179962,189.445282 259.223358,192.031143 256.596008,193.576904 
	C253.880615,195.174408 251.067932,196.742096 248.102066,197.742508 
	C244.716812,198.884338 244.640869,200.090500 246.932404,202.529648 
	C251.188400,207.059845 254.235703,212.353531 256.242096,218.261719 
	C256.790375,219.876236 257.005798,221.468109 257.025848,223.143188 
	C257.055664,225.626251 256.048615,227.421921 253.553665,227.878815 
	C251.188385,228.311966 249.894135,226.786148 249.079758,224.763611 
	C247.778259,221.531326 246.630844,218.224808 245.130463,215.087326 
	C241.819794,208.164322 236.864899,201.876724 227.334976,202.872025 
	C218.977020,203.744888 210.893478,201.689651 203.207733,198.144501 
	C199.909485,196.623154 197.497437,194.163223 195.140656,191.597946 
	C193.911346,190.259872 192.624374,188.629105 193.370865,186.697327 
	C194.211441,184.522064 196.363098,185.052277 198.547394,185.071671 
z"/>
<path fill="#00C68D" opacity="1.000000" stroke="none" 
	d="
M218.293121,101.154846 
	C213.325165,103.964119 211.189865,108.482155 209.125137,113.045723 
	C208.442108,114.555374 208.051651,116.251740 207.125854,117.583611 
	C205.941284,119.287788 205.501999,122.804070 202.420364,121.416290 
	C199.720322,120.200356 198.429565,117.457344 199.411026,114.265633 
	C202.757568,103.382805 208.953583,94.964905 220.109482,91.132225 
	C226.727371,88.858597 233.520935,87.450462 240.623062,87.942917 
	C243.418152,88.136726 245.769409,88.776474 245.848373,91.956436 
	C245.927460,95.140747 243.860199,96.808022 240.789932,96.953926 
	C235.995087,97.181770 231.180542,96.731789 226.424591,97.945480 
	C223.672562,98.647781 220.952545,99.278625 218.293121,101.154846 
z"/>
<path fill="#01C88E" opacity="1.000000" stroke="none" 
	d="
M190.268021,172.329269 
	C187.278412,173.339310 185.204208,172.359283 184.240967,169.966553 
	C183.237076,167.472931 185.285522,165.965988 186.973297,164.643478 
	C196.513077,157.168182 213.154297,157.088623 222.816147,164.542130 
	C224.775299,166.053497 226.815674,168.073669 225.350677,170.851624 
	C223.872833,173.653854 221.363022,173.100067 218.822754,172.128021 
	C214.964203,170.651535 211.111328,168.997238 207.102798,168.113861 
	C201.083237,166.787354 195.708054,169.162247 190.268021,172.329269 
z"/>
<path fill="#00C78E" opacity="1.000000" stroke="none" 
	d="
M205.646271,241.866074 
	C207.793610,243.796692 207.892441,246.252075 208.718811,248.765854 
	C209.733841,252.723572 211.058701,256.288208 211.099762,260.207367 
	C211.132446,263.326233 209.528381,264.457550 207.050644,264.719452 
	C204.346725,265.005249 203.450256,263.108673 202.969635,260.718872 
	C201.537643,253.598846 199.694473,246.694122 192.033646,243.470673 
	C190.342926,242.759293 188.684067,242.199081 186.841888,241.878815 
	C183.995377,241.383957 181.783676,239.556534 182.190186,236.423737 
	C182.593292,233.317123 185.225342,232.674454 187.919479,233.030426 
	C194.701767,233.926605 200.724274,236.445206 205.646271,241.866074 
z"/>
<path fill="#01C78E" opacity="1.000000" stroke="none" 
	d="
M192.987747,80.611450 
	C193.374664,76.612770 192.216782,73.340851 191.246994,69.978874 
	C190.477386,67.310951 190.659332,64.273582 193.866074,63.332413 
	C196.984818,62.417068 199.424683,64.127754 200.487930,67.156715 
	C204.165543,77.633476 200.389694,92.083534 193.442917,98.030426 
	C192.446243,98.883652 191.385437,99.734200 190.215485,100.297821 
	C187.757233,101.482071 184.947586,101.566017 183.512604,99.156975 
	C182.031204,96.670029 182.832962,93.957275 185.530930,92.289352 
	C189.756363,89.677101 191.995209,85.782402 192.987747,80.611450 
z"/>
<path fill="#0FCEA4" opacity="1.000000" stroke="none" 
	d="
M289.734070,154.219696 
	C291.794128,156.215805 291.276123,157.825928 288.378174,158.953949 
	C288.507050,157.474503 288.988434,155.953125 289.734070,154.219696 
z"/>
<path fill="#02C9A6" opacity="1.000000" stroke="none" 
	d="
M277.006226,187.337372 
	C278.462982,187.052658 279.025665,187.907837 278.993774,189.649109 
	C277.970306,189.534012 277.247467,188.809326 277.006226,187.337372 
z"/>
</svg>